<?xml version="1.0" encoding="utf-8"?>
<!-- Svg Vector Icons : http://www.onlinewebfonts.com/icon -->
<!DOCTYPE svg PUBLIC "-//W3C//DTD SVG 1.1//EN" "http://www.w3.org/Graphics/SVG/1.1/DTD/svg11.dtd">
<svg version="1.1" xmlns="http://www.w3.org/2000/svg" xmlns:xlink="http://www.w3.org/1999/xlink" x="0px" y="0px" viewBox="0 0 1000 1000" enable-background="new 0 0 1000 1000" xml:space="preserve">
<metadata> Svg Vector Icons : http://www.onlinewebfonts.com/icon </metadata>
<g><path d="M875.5,243H694.3v-36.2c0-63.6-51.3-115.3-114.5-115.3H392.3c-63.1,0-114.5,51.7-114.5,115.3V243H124.5C61.3,243,10,294.7,10,358.3v434.8c0,63.6,51.3,115.3,114.5,115.3h751.1c63.1,0,114.5-51.7,114.5-115.3V358.3C990,294.7,938.6,243,875.5,243z M932.8,795.6c0,31.7-25.8,57.7-57.2,57.7H124.4c-31.5,0-57.2-26-57.2-57.7V358.3c0-31.7,25.8-57.7,57.2-57.7h153.4c31.5,0,57.2-25.9,57.2-57.7v-36.2c0-31.7,25.7-57.7,57.2-57.7h187.6c31.5,0,57.2,26,57.2,57.7V243c0,31.7,25.8,57.7,57.2,57.7h181.2c31.5,0,57.2,26,57.2,57.7L932.8,795.6L932.8,795.6z M487.7,373.8c-103.4,0-187.2,84.5-187.2,188.6c0,104.2,83.8,188.6,187.2,188.6c103.4,0,187.2-84.5,187.2-188.6C674.8,458.3,591,373.8,487.7,373.8z M487.7,693.4c-71.7,0-130-58.8-130-131c0-72.2,58.3-131,130-131c71.7,0,130,58.8,130,131C617.6,634.7,559.3,693.4,487.7,693.4z M786.5,353.9c-26.3,0-47.7,21.5-47.7,48.1s21.4,48.1,47.7,48.1c26.3,0,47.7-21.5,47.7-48.1S812.9,353.9,786.5,353.9z"/></g>
</svg>