<?xml version="1.0" encoding="utf-8"?>
<!-- Svg Vector Icons : http://www.onlinewebfonts.com/icon -->
<!DOCTYPE svg PUBLIC "-//W3C//DTD SVG 1.1//EN" "http://www.w3.org/Graphics/SVG/1.1/DTD/svg11.dtd">
<svg version="1.1" xmlns="http://www.w3.org/2000/svg" xmlns:xlink="http://www.w3.org/1999/xlink" x="0px" y="0px" viewBox="0 0 1000 1000" enable-background="new 0 0 1000 1000" xml:space="preserve">
<metadata> Svg Vector Icons : http://www.onlinewebfonts.com/icon </metadata>
<g><path d="M960.5,594.6c-7.1,0-14.3-2.6-19.9-7.8L499.8,181.5L59.2,578.2c-12.1,10.9-30.7,9.9-41.6-2.2c-10.9-12.1-9.9-30.7,2.2-41.6l480.5-432.6l480.3,441.6c12,11,12.8,29.7,1.7,41.6C976.4,591.4,968.5,594.6,960.5,594.6z"/><path d="M863.9,898.2h-308V673.8h-96.7v216.5h-308l0.5-448.9c0-16.3,13.2-29.4,29.5-29.4c0,0,0,0,0,0c16.3,0,29.4,13.2,29.4,29.5l-0.5,389.9h190V614.9h214.5v224.4h190.1l-0.3-381.9c0-16.3,13.2-29.5,29.4-29.5c0,0,0,0,0,0c16.3,0,29.5,13.2,29.5,29.4L863.9,898.2z"/></g>
</svg>