<?xml version="1.0" encoding="utf-8"?>
<!-- Svg Vector Icons : http://www.onlinewebfonts.com/icon -->
<!DOCTYPE svg PUBLIC "-//W3C//DTD SVG 1.1//EN" "http://www.w3.org/Graphics/SVG/1.1/DTD/svg11.dtd">
<svg version="1.1" xmlns="http://www.w3.org/2000/svg" xmlns:xlink="http://www.w3.org/1999/xlink" x="0px" y="0px" viewBox="0 0 1000 1000" enable-background="new 0 0 1000 1000" xml:space="preserve">
<metadata> Svg Vector Icons : http://www.onlinewebfonts.com/icon </metadata>
<g><path d="M510.7,19.3l474.5,474.7c10.2,10.2,3,27.7-11.5,27.7h-92.5c-8.9,0-16.2,7.3-16.2,16.2v431.3c0,8.9-7.3,16.2-16.2,16.2H600.3c-8.9,0-16.2-7.3-16.2-16.2V730.5c0-8.9-7.3-16.2-16.2-16.2H431.1c-8.9,0-16.2,7.3-16.2,16.2v238.8c0,8.9-7.3,16.2-16.2,16.2H150.5c-8.9,0-16.2-7.3-16.2-16.2V536.8c0-8.9-7.3-16.2-16.2-16.2H26.2c-14.4,0-21.7-17.4-11.5-27.7l473-473.6C494.1,13,504.4,13,510.7,19.3z"/></g>
</svg>