<?xml version="1.0" encoding="utf-8"?>
<!-- Svg Vector Icons : http://www.onlinewebfonts.com/icon -->
<!DOCTYPE svg PUBLIC "-//W3C//DTD SVG 1.1//EN" "http://www.w3.org/Graphics/SVG/1.1/DTD/svg11.dtd">
<svg version="1.1" xmlns="http://www.w3.org/2000/svg" xmlns:xlink="http://www.w3.org/1999/xlink" x="0px" y="0px" viewBox="0 0 1000 1000" enable-background="new 0 0 1000 1000" xml:space="preserve">
<metadata> Svg Vector Icons : http://www.onlinewebfonts.com/icon </metadata>
<g><path d="M500,867.5c-31.3,0-61.9-2.8-91.6-7.8L193.8,990V773.1C81.8,694.6,10,574.1,10,438.7C10,202,229.4,10,500,10c270.6,0,490,192,490,428.7C990,675.5,770.6,867.5,500,867.5z M500,71.3c-236.8,0-428.8,164.5-428.8,367.5c0,124.5,72.4,234.4,183,300.9l-1.9,142.1L396.5,795c33.2,7.1,67.8,11.2,103.5,11.2c236.8,0,428.8-164.5,428.8-367.5C928.8,235.8,736.8,71.3,500,71.3z M714.4,408.1H285.6c-16.9,0-30.6-13.7-30.6-30.6c0-16.9,13.7-30.6,30.6-30.6h428.8c16.9,0,30.6,13.7,30.6,30.6C745,394.4,731.3,408.1,714.4,408.1z M346.9,530.6h306.3c16.9,0,30.6,13.7,30.6,30.6c0,16.9-13.7,30.6-30.6,30.6H346.9c-16.9,0-30.6-13.7-30.6-30.6C316.3,544.3,330,530.6,346.9,530.6z"/></g>
</svg>