<?xml version="1.0" encoding="utf-8"?>
<!-- Svg Vector Icons : http://www.onlinewebfonts.com/icon -->
<!DOCTYPE svg PUBLIC "-//W3C//DTD SVG 1.1//EN" "http://www.w3.org/Graphics/SVG/1.1/DTD/svg11.dtd">
<svg version="1.1" xmlns="http://www.w3.org/2000/svg" xmlns:xlink="http://www.w3.org/1999/xlink" x="0px" y="0px" viewBox="0 0 1000 1000" enable-background="new 0 0 1000 1000" xml:space="preserve">
<metadata> Svg Vector Icons : http://www.onlinewebfonts.com/icon </metadata>
<g><path d="M511.4,553.2C641.4,544.3,745,386.5,745,255c0-135.3-109.7-245-245-245S255,119.7,255,255c0,131.5,103.6,289.3,233.6,298.2C233,558.2,10,729.9,10,873.9C10,990,140.8,990,140.8,990H500h359.2c0,0,130.8,0,130.8-116.1C990,729.9,767,558.2,511.4,553.2z M316.3,255c0-101.3,82.4-183.8,183.8-183.8c101.3,0,183.8,82.4,183.8,183.8c0,104.6-86.5,237.3-183.8,237.3C402.8,492.3,316.3,359.6,316.3,255z M901.9,918.5c-19.5,9.4-41.3,10.2-43.1,10.3H500H140.8c-0.2,0-21.3-0.7-40.5-9.2c-20.9-9.3-29-22.1-29-45.6c0-102.5,192.1-259.7,428.8-259.7s428.8,157.1,428.8,259.7C928.8,896.7,921.2,909.2,901.9,918.5z"/></g>
</svg>