<?xml version="1.0" encoding="utf-8"?>
<!-- Svg Vector Icons : http://www.onlinewebfonts.com/icon -->
<!DOCTYPE svg PUBLIC "-//W3C//DTD SVG 1.1//EN" "http://www.w3.org/Graphics/SVG/1.1/DTD/svg11.dtd">
<svg version="1.1" xmlns="http://www.w3.org/2000/svg" xmlns:xlink="http://www.w3.org/1999/xlink" x="0px" y="0px" viewBox="0 0 1000 1000" enable-background="new 0 0 1000 1000" xml:space="preserve">
<metadata> Svg Vector Icons : http://www.onlinewebfonts.com/icon </metadata>
<g><path d="M945.1,946.9c-2.7-11.8-6.6-23.5-10.5-35c-10.8-31.2-24.2-61.7-39.8-90.8c-44-81.5-109.3-154-192.5-196.5c-20.1-10.2-40.8-18.7-62.1-25.5c30.3-14.9,58.3-34.8,82.9-59.4c58.6-58.6,90.9-136.6,90.9-219.4c0-82.9-32.3-160.8-90.9-219.4C664.5,42.3,586.5,10,503.6,10c-82.9,0-160.8,32.3-219.4,90.9c-58.6,58.6-90.9,136.5-90.9,219.4c0,82.9,32.3,160.8,90.9,219.4c24.4,24.4,52.3,44.3,82.4,59.1c-7.2,2.3-14.4,4.9-21.4,7.6c-94.3,36.8-169.7,105.6-223.3,190.8c-19.5,31-35.4,63.8-49.2,97.7c-6.5,16.1-12.7,32.7-17.2,49.5c-0.2,0.8-0.4,1.5-0.6,2.2c-4.3,17.2,5.5,37.6,23.7,41.8c17.6,4,37.1-5.3,41.7-23.7c2.9-11.4,6.8-22.6,10.8-33.7c2.1-5.8,4.4-11.6,6.7-17.4c1.4-3.5,6.4-14.8,0.4-1.2c1.6-3.6,3.1-7.1,4.7-10.7c6.8-15.2,14.3-30.1,22.4-44.7c9.4-16.8,19.6-33.2,30.7-49c2.9-4.1,5.9-8.2,8.9-12.2c1.3-1.7,2.6-3.4,3.9-5.1c-7.9,10.7-0.9,1.2,1.1-1.3c6.9-8.6,14.1-17,21.6-25.1c15.2-16.3,31.5-31.4,49-45.3c0.6-0.4,1.1-0.8,1.7-1.3c2.1-1.6,4.3-3.2,6.5-4.7c5.2-3.7,10.5-7.3,15.8-10.7c10.4-6.7,21-12.8,32-18.4c5.3-2.7,10.6-5.3,16-7.7c2.7-1.2,13.6-5.7,2-1c3.4-1.4,6.9-2.8,10.3-4.2c12.2-4.7,24.7-8.8,37.3-12.2c13.9-3.8,27.9-6.7,42.1-9c1.5-0.2,3.1-0.5,4.6-0.7c3.2-0.4,6.4-0.8,9.6-1.1c7.4-0.7,14.8-1.3,22.3-1.7c16-0.8,32.1-0.8,48.1,0.1c6.8,0.4,13.6,0.9,20.4,1.6c3.1,0.3,6.3,0.7,9.4,1.1c2.2,0.3,4.3,0.6,6.5,1c26.9,4.4,53.3,11.5,78.7,21.5c2.7,1.1,13.5,5.9,2.1,0.8c2.8,1.3,5.7,2.5,8.5,3.8c5.6,2.6,11.1,5.3,16.5,8.1c11,5.7,21.8,12.1,32.1,18.9c4.9,3.2,9.6,6.5,14.4,9.9c1.8,1.3,3.7,2.7,5.5,4c-0.6-0.5-1.2-1-2-1.6c0.7,0.6,1.5,1.2,2.2,1.8c0,0,0.1,0,0.1,0.1c1.4,1.1,4.1,3.2,2.5,2c9,7.2,17.6,14.8,25.9,22.7c15.3,14.6,29,30.5,42.4,46.9c0.5,0.7,1.1,1.3,1.4,1.8c1.3,1.7,2.5,3.4,3.8,5.1c3.2,4.4,6.3,8.8,9.3,13.2c5.6,8.3,11,16.7,16.1,25.3c9,15,17.2,30.5,24.7,46.3c3.2,6.7,6.2,13.5,9.2,20.3c0.6,1.4,1.1,2.8,1.7,4.2c1.2,3.1,2.4,6.1,3.6,9.2c6,15.8,11.1,31.8,15.6,48.1c0.2,0.7,0.4,1.5,0.5,2.2c4,17.3,24.8,29.2,41.7,23.7C939.5,982.8,949.4,965.5,945.1,946.9z M249.8,320.3c0-139.9,113.8-253.8,253.8-253.8c139.9,0,253.8,113.8,253.8,253.8c0,139.9-113.8,253.8-253.8,253.8C363.7,574.1,249.8,460.3,249.8,320.3z M793.4,788.8C789.3,783.7,791.3,786.2,793.4,788.8L793.4,788.8z"/><path d="M722.9,717.6c-0.1-0.1-0.1-0.1-0.2-0.2c1.4,1.1,2.3,1.8,2.8,2.2c-0.1-0.1-0.2-0.2-0.3-0.3C724.4,718.8,723.6,718.2,722.9,717.6z"/></g>
</svg>